<svg width="21" height="19" viewBox="0 0 21 19" fill="none" xmlns="http://www.w3.org/2000/svg">
<circle cx="10.8833" cy="9.78331" r="8.93333" fill="#3835D0"/>
<path d="M10.0994 8.46998H11.6594V13.85H10.0994V8.46998ZM10.8794 7.71998C10.5928 7.71998 10.3594 7.63664 10.1794 7.46998C9.99942 7.30331 9.90942 7.09664 9.90942 6.84998C9.90942 6.60331 9.99942 6.39664 10.1794 6.22998C10.3594 6.06331 10.5928 5.97997 10.8794 5.97997C11.1661 5.97997 11.3994 6.05998 11.5794 6.21998C11.7594 6.37998 11.8494 6.57998 11.8494 6.81998C11.8494 7.07998 11.7594 7.29664 11.5794 7.46998C11.3994 7.63664 11.1661 7.71998 10.8794 7.71998Z" fill="white"/>
</svg>
