<svg width="34" height="40" viewBox="0 0 34 40" fill="none" xmlns="http://www.w3.org/2000/svg">
<path d="M19 1.5H15C10.8579 1.5 7.5 4.85786 7.5 9V25C7.5 29.1421 10.8579 32.5 15 32.5H19C23.1421 32.5 26.5 29.1421 26.5 25V9C26.5 4.85786 23.1421 1.5 19 1.5Z" stroke="#6990F2" stroke-width="3"/>
<path d="M29 13H5C2.23858 13 0 15.2386 0 18V34.8421C0 37.6035 2.23858 39.8421 5 39.8421H29C31.7614 39.8421 34 37.6035 34 34.8421V18C34 15.2386 31.7614 13 29 13Z" fill="#6990F2"/>
<path fill-rule="evenodd" clip-rule="evenodd" d="M12.4398 24.4878C12.7844 22.5542 14.2999 21 16.3796 21C18.4573 21 19.9724 22.5569 20.3193 24.4878L22.0602 24.309C24.2361 24.309 26 26.0307 26 28.1545C26 30.2783 23.778 32 21.6021 32H12.1649C9.98905 32 8.5 30.2783 8.5 28.1545C8.5 26.1002 10.0576 24.309 12.4398 24.4878Z" fill="white"/>
</svg>
